<?xml version="1.0" encoding="utf-8"?>
<!-- Generated by IcoMoon.io -->
<!DOCTYPE svg PUBLIC "-//W3C//DTD SVG 1.1//EN" "http://www.w3.org/Graphics/SVG/1.1/DTD/svg11.dtd">
<svg version="1.1" xmlns="http://www.w3.org/2000/svg" xmlns:xlink="http://www.w3.org/1999/xlink" width="256" height="256" viewBox="0 0 256 256">
<g id="icomoon-ignore">
</g>
<path d="M216 232.128h-176c-8.84 0-16-7.168-16-16v-104c0-8.832 7.16-16 16-16l8.464 0.048c0-13.072 3.976-21.552 11.936-30.456 7.952-8.896 17.832-13.344 29.616-13.344 5.592 0 11.792 0.944 18.584 2.832 0 0 14.776 4.912 25.032 4.912 15.656 0 26.328-6.864 32.008-20.592 2.664-6.6 5.376-9.904 8.136-9.904 3.952 0 5.936 1.84 5.936 5.528 0 6.52-3.528 13.736-10.576 21.624-9.456 10.728-21.104 16.096-34.936 16.096-10.744 0-29.152-5.040-29.152-5.040-7.48-1.808-12.808-2.712-15.984-2.712-7.656 0-14.208 3.264-19.664 9.808-5.464 6.536-8.184 12.32-8.184 21.352l154.784-0.152c8.832 0 16 7.168 16 16v104c0 8.832-7.168 16-16 16zM224 112.128c0-4.424-3.584-8-8-8h-176c-4.424 0-8 3.576-8 8v104c0 4.416 3.576 8 8 8h176c4.416 0 8-3.584 8-8v-104zM160.024 168.216h48.144v15.848h-48.144v-15.848zM175.904 144.216h32.168v15.848h-32.168v-15.848zM192.056 120.128h16.024v16.352h-16.024v-16.352zM168.296 120.128h15.688v16.352h-15.688v-16.352zM152.064 144.216h15.848v15.848h-15.848v-15.848zM144.2 120.128h16.016v16.352h-16.016v-16.352zM127.632 144.216h16.352v15.848h-16.352v-15.848zM119.776 120.128h16.352v16.352h-16.352v-16.352zM96.016 120.128h16.184v16.352h-16.184v-16.352zM71.424 120.128h16.52v16.352h-16.52v-16.352zM48 120.128h16.352v16.352h-16.352v-16.352zM96.144 160.072h-48.144v-15.848h48.144v15.848zM64.352 208.424h-16.352v-16.352h16.352v16.352zM48.088 168.216h32.168v15.848h-32.168v-15.848zM88.28 208.424h-16.36v-16.352h16.36v16.352zM128.032 184.072h-16.36v-15.848h16.36v15.848zM104.104 184.072h-16.352v-15.848h16.352v15.848zM120.064 160.072h-16.36v-15.848h16.36v15.848zM151.952 168.216v15.848h-15.848v-15.848h15.848zM160.056 208.424h-63.704v-16.352h63.704v16.352zM183.984 208.424h-16.36v-16.352h16.36v16.352zM207.904 208.424h-15.848v-16.352h15.848v16.352z" fill="#ff5335"></path>
</svg>
