<?xml version="1.0" encoding="utf-8"?>
<!-- Generated by IcoMoon.io -->
<!DOCTYPE svg PUBLIC "-//W3C//DTD SVG 1.1//EN" "http://www.w3.org/Graphics/SVG/1.1/DTD/svg11.dtd">
<svg version="1.1" xmlns="http://www.w3.org/2000/svg" xmlns:xlink="http://www.w3.org/1999/xlink" width="256" height="256" viewBox="0 0 256 256">
<g id="icomoon-ignore">
</g>
<path d="M212.832 236.696l-20.992-5.76-0.048-58.064 20.080 5.648 28.952-108.072-146.656-39.296-9.664 36.048h-16.544l14.904-55.616 177.544 47.568-47.576 177.544zM184.312 256h-184.312v-183.816h184.312v183.816zM168.328 88.168h-152.344v111.88h152.344v-111.88zM62.792 167.944l18.264-29.536 18.264 18.408 25.112-37.816 26.264 65.072h-116.448l14.84-29.68 13.704 13.552zM51.872 136.688c-6.624 0-11.992-5.36-11.992-11.984s5.368-11.984 11.992-11.984 11.984 5.36 11.984 11.984-5.36 11.984-11.984 11.984z" fill="#ff5335"></path>
</svg>
