<?xml version="1.0" encoding="utf-8"?>
<!-- Generated by IcoMoon.io -->
<!DOCTYPE svg PUBLIC "-//W3C//DTD SVG 1.1//EN" "http://www.w3.org/Graphics/SVG/1.1/DTD/svg11.dtd">
<svg version="1.1" xmlns="http://www.w3.org/2000/svg" xmlns:xlink="http://www.w3.org/1999/xlink" width="256" height="256" viewBox="0 0 256 256">
<g id="icomoon-ignore">
</g>
<path d="M128 23.872c-57.608 0-104.12 46.52-104.12 104.128 0 57.592 46.512 104.128 104.12 104.128 57.6 0 104.128-46.528 104.128-104.128 0-57.608-46.536-104.128-104.128-104.128zM127.632 65.512c7.448 0 13.496 6.040 13.496 13.504 0 7.456-6.048 13.504-13.496 13.504-7.464 0-13.504-6.048-13.504-13.504-0.008-7.464 6.040-13.504 13.504-13.504zM129.456 225.128c-28.328 0-50.080-21.152-50.080-48.52 0-26.44 20.016-48.536 46.856-48.512 0 0 50.384-2.48 50.384-48.664 0-27.76-16.8-44.536-48.68-48.664 57.384 3.184 97.184 42.984 97.184 97.176 0.008 52.88-43.512 97.184-95.664 97.184zM128.12 162.512c-7.456 0-13.504 6.040-13.504 13.504 0 7.456 6.048 13.504 13.504 13.504s13.504-6.048 13.504-13.504c0-7.464-6.048-13.504-13.504-13.504z" fill="#ff5335"></path>
</svg>
